{"title":"Ariana Grande Ft. Zedd - Break Free [Music Video] 1080p [Sbyky]","uid":11175886,"size":74782047,"categoryP":"video","categoryS":"music_videos","magnet":"?xt=urn:btih:a42927b9407242517dbabd5f3df665372754d6b0&amp;dn=Ariana+Grande+Ft.+Zedd+-+Break+Free+%5BMusic+Video%5D+1080p+%5BSbyky%5D&amp;tr=udp%3A%2F%2Ftracker.openbittorrent.com%3A80&amp;tr=udp%3A%2F%2Fopen.demonii.com%3A1337&amp;tr=udp%3A%2F%2Ftracker.coppersurfer.tk%3A6969&amp;tr=udp%3A%2F%2Fexodus.desync.com%3A6969","seeders":24,"leechers":0,"uploader":"Sbyky","files":1,"time":1412784876,"description":"General\nComplete name                            : Ariana Grande Ft. Zedd - Break Free [Music Video] 1080p [Sbyky].MP4\nFormat                                   : MPEG-4\nFormat profile                           : Base Media\nCodec ID                                 : isom\nFile size                                : 71.3 MiB\nDuration                                 : 4mn 7s\nOverall bit rate mode                    : Variable\nOverall bit rate                         : 2 413 Kbps\nEncoded date                             : UTC 2014-08-21 04:29:23\nTagged date                              : UTC 2014-08-21 04:29:23\n\nVideo\nID                                       : 1\nFormat                                   : AVC\nFormat/Info                              : Advanced Video Codec\nFormat profile                           : &lt;a class=&quot;__cf_email__&quot; href=&quot;/cdn-cgi/l/email-protection&quot; data-cfemail=&quot;5d15343a351d1169736d&quot;&gt;[email&amp;#160;protected]&lt;/a&gt;&lt;script cf-hash='f9e31' type=&quot;text/javascript&quot;&gt;\n/* &lt;![CDATA[ */!function(){try{var t=&quot;currentScript&quot;in document?document.currentScript:function(){for(var t=document.getElementsByTagName(&quot;script&quot;),e=t.length;e--;)if(t[e].getAttribute(&quot;cf-hash&quot;))return t[e]}();if(t&amp;&amp;t.previousSibling){var e,r,n,i,c=t.previousSibling,a=c.getAttribute(&quot;data-cfemail&quot;);if(a){for(e=&quot;&quot;,r=parseInt(a.substr(0,2),16),n=2;a.length-n;n+=2)i=parseInt(a.substr(n,2),16)^r,e+=String.fromCharCode(i);e=document.createTextNode(e),c.parentNode.replaceChild(e,c)}}}catch(u){}}();/* ]]&gt; */&lt;/script&gt;\nFormat settings, CABAC                   : Yes\nFormat settings, ReFrames                : 3 frames\nCodec ID                                 : avc1\nCodec ID/Info                            : Advanced Video Coding\nDuration                                 : 4mn 7s\nBit rate                                 : 2 284 Kbps\nWidth                                    : 1 920 pixels\nHeight                                   : 1 080 pixels\nDisplay aspect ratio                     : 16:9\nFrame rate mode                          : Variable\nFrame rate                               : 23.976 fps\nMinimum frame rate                       : 23.974 fps\nMaximum frame rate                       : 927.835 fps\nColor space                              : YUV\nChroma subsampling                       : 4:2:0\nBit depth                                : 8 bits\nScan type                                : Progressive\nBits/(Pixel*Frame)                       : 0.046\nStream size                              : 67.5 MiB (95%)\nEncoded date                             : UTC 2014-08-21 04:29:23\nTagged date                              : UTC 2014-08-21 04:29:23\n\nAudio\nID                                       : 2\nFormat                                   : AAC\nFormat/Info                              : Advanced Audio Codec\nFormat profile                           : LC\nCodec ID                                 : 40\nDuration                                 : 4mn 7s\nBit rate mode                            : Variable\nBit rate                                 : 126 Kbps\nChannel(s)                               : 2 channels\nChannel positions                        : Front: L R\nSampling rate                            : 44.1 KHz\nCompression mode                         : Lossy\nStream size                              : 3.71 MiB (5%)\nEncoded date                             : UTC 2014-08-21 04:15:34\nTagged date                              : UTC 2014-08-21 04:15:34\n\nShared By Sbyky\n","torrent":{"xt":"urn:btih:a42927b9407242517dbabd5f3df665372754d6b0","amp;dn":"Ariana+Grande+Ft.+Zedd+-+Break+Free+%5BMusic+Video%5D+1080p+%5BSbyky%5D","amp;tr":["udp%3A%2F%2Ftracker.openbittorrent.com%3A80","udp%3A%2F%2Fopen.demonii.com%3A1337","udp%3A%2F%2Ftracker.coppersurfer.tk%3A6969","udp%3A%2F%2Fexodus.desync.com%3A6969"],"infoHash":"a42927b9407242517dbabd5f3df665372754d6b0","infoHashBuffer":{"type":"Buffer","data":[164,41,39,185,64,114,66,81,125,186,189,95,61,246,101,55,39,84,214,176]},"announce":[],"urlList":[]}}